# xmcd
# 
# Track frame offsets:
#     150
#     19879
#     33874
#     51267
#     61291
#     74775
#     89805
#     104821
#     116556
#     130877
#     144652
#     160522
#     175225
#     190714
# 
# Disc length: 2738
# 
# Revision: 5
# Processed by: cddbd v1.5.2PL0 Copyright (c) Steve Scherf et al.
# Submitted via: fre:ac v1.0.31
# 
DISCID=cf0ab00e
DTITLE=Various Artist - RCA SWING100! CD3 ヴォーカルⅠ
DYEAR=2006
DGENRE=Jazz
TTITLE0=ジョン・ピザレリ with ディック・リーブ・オーケストラ - オール・オブ・ミー
TTITLE1=ジョン・ピザレリ with ディック・リーブ・オーケストラ - ユー・ステップト・アウト・オブ・ア・ドリーム
TTITLE2=ペリー・コモ with ミッチェル・エイヤーズ・オーケストラ - ルート 66
TTITLE3=ペリー・コモ with ミッチェル・エイヤーズ・オーケストラ - あなたはしっかり私のもの
TTITLE4=ペリー・コモ with ミッチェル・エイヤーズ・オーケストラ - セントルイス・ブルース
TTITLE5=ルイ・アームストロング楽団 - この素晴らしき世界
TTITLE6=マット・デニス with ハリー・ゲラーズ・オーケストラ - ブルー・ムーン
TTITLE7=マット・デニス with ハリー・ゲラーズ・オーケストラ - ジョーンズ嬢に会ったかい？
TTITLE8=フランク・シナトラ ＆ トミー・ドーシー楽団 - アイル・ネヴァー・スマイル・アゲイン
TTITLE9=フランク・シナトラ ＆ トミー・ドーシー楽団 - アイル・ビーシーイング・ユー
TTITLE10=フランク・シナトラ ＆ トミー・ドーシー楽団 - ザ・ワン・アイ・ラヴ
TTITLE11=フランク・シナトラ ＆ トミー・ドーシー楽団 - オー・ルック・アット・ミー・ナウ
TTITLE12=キャブ・キャロウェイ・アンド・ヒズ・オーケストラ - ミニー・ザ・ムーチャー
TTITLE13=ビング・クロスビー with CBSスタジオ・オーケストラ - ジャスト・ワン・モア・チャンス
EXTD=
EXTT0=
EXTT1=
EXTT2=
EXTT3=
EXTT4=
EXTT5=
EXTT6=
EXTT7=
EXTT8=
EXTT9=
EXTT10=
EXTT11=
EXTT12=
EXTT13=
PLAYORDER=
